<?xml version="1.0" encoding="UTF-8" standalone="no"?>
<svg
   xmlns:dc="http://purl.org/dc/elements/1.1/"
   xmlns:cc="http://creativecommons.org/ns#"
   xmlns:rdf="http://www.w3.org/1999/02/22-rdf-syntax-ns#"
   xmlns:svg="http://www.w3.org/2000/svg"
   xmlns="http://www.w3.org/2000/svg"
   xmlns:sodipodi="http://sodipodi.sourceforge.net/DTD/sodipodi-0.dtd"
   xmlns:inkscape="http://www.inkscape.org/namespaces/inkscape"
   width="54.604mm"
   height="56.578mm"
   version="1.1"
   viewBox="0 0 54.604248 56.578133"
   id="svg1529"
   sodipodi:docname="welcome01.svg"
   inkscape:export-filename="D:\Project\pocketvault\src\app\assets\welcome01.png"
   inkscape:export-xdpi="300"
   inkscape:export-ydpi="300"
   inkscape:version="0.92.3 (2405546, 2018-03-11)">
  <defs
     id="defs1533" />
  <sodipodi:namedview
     pagecolor="#ffffff"
     bordercolor="#666666"
     borderopacity="1"
     objecttolerance="10"
     gridtolerance="10"
     guidetolerance="10"
     inkscape:pageopacity="0"
     inkscape:pageshadow="2"
     inkscape:window-width="3840"
     inkscape:window-height="2104"
     id="namedview1531"
     showgrid="false"
     inkscape:zoom="3.1215615"
     inkscape:cx="6.6023842"
     inkscape:cy="106.91905"
     inkscape:window-x="-16"
     inkscape:window-y="-16"
     inkscape:window-maximized="1"
     inkscape:current-layer="svg1529" />
  <metadata
     id="metadata1501">
    <rdf:RDF>
      <cc:Work
         rdf:about="">
        <dc:format>image/svg+xml</dc:format>
        <dc:type
           rdf:resource="http://purl.org/dc/dcmitype/StillImage" />
        <dc:title />
      </cc:Work>
    </rdf:RDF>
  </metadata>
  <g
     id="g2960">
    <rect
       style="fill:none;stroke-width:0.26458001"
       id="rect1503"
       height="40.258495"
       width="38.546661"
       y="0.99962217"
       x="1.3773967" />
    <rect
       style="fill:#0e79b2;stroke-width:0"
       id="rect1505"
       rx="4.2332802"
       height="39.602333"
       width="39.300713"
       y="1.3276988"
       x="0.99904925" />
    <rect
       style="fill:#6b99e3;stroke-width:0"
       id="rect1507"
       rx="1.4173815"
       height="32.710026"
       width="32.710026"
       y="4.7936983"
       x="4.7058096" />
    <circle
       style="fill:#ebebeb;stroke-width:0"
       r="11.000443"
       id="ellipse1509"
       cy="21.14209"
       cx="20.900757" />
    <path
       style="fill:#191923;stroke-width:0"
       inkscape:connector-curvature="0"
       id="path1511"
       d="m 37.402608,8.8100202 c -0.683886,0 -1.23453,0.5900134 -1.23453,1.3228998 v 5.063268 c 0,0.732886 0.550644,1.3229 1.23453,1.3229 0.683887,0 1.23453,-0.590014 1.23453,-1.3229 V 10.13292 c 0,-0.7328864 -0.550643,-1.3228998 -1.23453,-1.3228998 z m -17.603301,2.4819988 1.101738,1.795731 1.101737,-1.795731 z m 1.101738,2.854024 c -3.863662,-2.9e-5 -6.99576,3.132098 -6.99576,6.99576 -2.1e-5,3.863662 3.132098,6.996024 6.99576,6.99576 3.863661,2.6e-5 6.995759,-3.132098 6.995759,-6.99576 1.9e-5,-3.863662 -3.132098,-6.996024 -6.995759,-6.99576 z m 16.50159,11.597071 c -0.683887,0 -1.234531,0.590013 -1.234531,1.3229 v 5.063267 c 0,0.732887 0.550644,1.3229 1.234531,1.3229 0.683886,0 1.23453,-0.590013 1.23453,-1.3229 v -5.063267 c 0,-0.732887 -0.550644,-1.3229 -1.23453,-1.3229 z m -31.8607239,15.145088 0.52916,3.158821 h 5.4265359 l 0.52916,-3.158821 z m 24.3413599,0 0.52916,3.158821 h 5.426536 l 0.52916,-3.158821 z" />
    <path
       inkscape:connector-curvature="0"
       id="path1513"
       style="color:#000000;font-variant-ligatures:normal;font-variant-position:normal;font-variant-caps:normal;font-variant-numeric:normal;font-variant-alternates:normal;font-feature-settings:normal;text-indent:0;text-decoration:none;text-decoration-line:none;text-decoration-style:solid;text-decoration-color:#000000;text-transform:none;text-orientation:mixed;dominant-baseline:auto;white-space:normal;shape-padding:0;isolation:auto;mix-blend-mode:normal;solid-color:#000000;fill:#ebebeb;stroke-width:0.26458001;color-rendering:auto;image-rendering:auto;shape-rendering:auto"
       dominant-baseline="auto"
       d="m 20.906045,15.313397 c -0.127382,0.0011 -0.229806,0.10516 -0.228922,0.232542 l -0.0083,1.240218 c -0.0028,0.308659 0.460581,0.311755 0.461983,0.0031 l 0.0083,-1.240219 c 0.0026,-0.13021 -0.102827,-0.236857 -0.233058,-0.235643 z m -2.804548,0.747756 c -0.03862,0.0013 -0.07629,0.01235 -0.109554,0.03204 -0.109756,0.06459 -0.146514,0.20584 -0.08216,0.315749 l 0.612873,1.077952 c 0.147445,0.283365 0.569217,0.04398 0.401527,-0.22789 l -0.612874,-1.078481 c -0.04192,-0.07608 -0.122984,-0.122202 -0.209801,-0.119371 z m 5.608832,0.0052 c -0.08211,-7.94e-4 -0.158375,0.04238 -0.199986,0.113169 l -0.634066,1.065569 c -0.06765,0.11015 -0.03094,0.25442 0.08113,0.318846 0.109737,0.0632 0.24993,0.02548 0.313157,-0.08423 L 23.90463,16.414164 C 23.99615,16.262107 23.8878,16.068146 23.710328,16.0664 Z m -7.641865,2.040679 c -0.08692,-0.0038 -0.168624,0.04151 -0.211354,0.117304 -0.06287,0.110886 -0.02402,0.251735 0.08682,0.314692 l 1.070199,0.627345 c 0.266088,0.156222 0.50003,-0.243352 0.233574,-0.398933 l -1.070199,-0.626817 c -0.03296,-0.02013 -0.07045,-0.03169 -0.109037,-0.03359 z m 9.671193,0.01138 c -0.03435,0.0024 -0.06774,0.01243 -0.09767,0.02946 l -1.081576,0.606152 c -0.113487,0.06148 -0.153907,0.204463 -0.0894,0.316253 0.0634,0.109539 0.203554,0.147006 0.313157,0.08372 l 1.082608,-0.606153 c 0.214119,-0.119186 0.117376,-0.446003 -0.12712,-0.429413 z m -0.475926,2.784175 c -0.129158,-0.0036 -0.235757,0.100234 -0.235643,0.229441 2.22e-4,0.126541 0.1029,0.228989 0.229441,0.228926 l 1.240219,0.01654 c 0.305934,0.0038 0.311622,-0.455078 0.0057,-0.458888 z m -9.953235,0.0021 c -0.130211,-0.0026 -0.236858,0.102826 -0.235643,0.233058 0.0011,0.127382 0.10516,0.229806 0.232542,0.228922 l 1.240219,0.0078 c 0.308103,0.0021 0.311199,-0.459814 0.0031,-0.461984 z m 9.356871,2.176594 c -0.07798,0.0038 -0.148659,0.04704 -0.187582,0.114719 -0.0632,0.109737 -0.0255,0.249933 0.08423,0.313157 l 1.066072,0.634066 c 0.26712,0.173585 0.514397,-0.242858 0.234093,-0.394277 l -1.065543,-0.633537 c -0.03931,-0.02434 -0.08507,-0.03623 -0.131258,-0.03411 z m -7.526507,0.0078 c -0.04229,-0.0013 -0.08412,0.0091 -0.120924,0.02997 l -1.077951,0.612873 c -0.114339,0.0627 -0.154126,0.207568 -0.08785,0.319877 0.06459,0.109758 0.20584,0.146516 0.315749,0.08216 l 1.078481,-0.612873 c 0.203872,-0.115235 0.126615,-0.425736 -0.107485,-0.432006 z m 5.941673,1.590073 c -0.03837,0.0011 -0.07586,0.01172 -0.109036,0.03101 -0.109539,0.0634 -0.147006,0.203552 -0.08372,0.313157 l 0.60565,1.082079 c 0.149509,0.267014 0.550009,0.04274 0.400495,-0.224274 L 23.289769,24.79955 c -0.04094,-0.07591 -0.121,-0.122427 -0.207219,-0.120405 z m -4.353664,0.0026 c -0.08224,-2.46e-4 -0.158406,0.04325 -0.199985,0.114203 l -0.627346,1.0702 c -0.06722,0.111451 -0.02911,0.256407 0.08423,0.320379 0.110885,0.06287 0.251735,0.02402 0.314691,-0.08682 l 0.626817,-1.0702 c 0.09004,-0.15366 -0.02035,-0.347102 -0.198435,-0.347764 z m 2.182785,0.58496 c -0.12654,2.22e-4 -0.228988,0.1029 -0.228925,0.229441 l -0.01654,1.240218 c -0.0038,0.305934 0.455077,0.311623 0.458887,0.0057 l 0.01603,-1.239716 c 0.0035,-0.129158 -0.100234,-0.235757 -0.229441,-0.235643 z" />
  </g>
  <g
     transform="matrix(0.2821618,0,0,0.2821618,-134.82783,10.462099)"
     id="g1523">
    <g
       transform="translate(630.1,-178.18)"
       id="g1521">
      <circle
         transform="matrix(0.9557,0,0,0.9557,-68.339,45.945)"
         cx="71.721001"
         cy="265.45001"
         r="39.901001"
         id="circle1515"
         style="fill:#da1785" />
      <path
         d="m 19.688,279.59 v 10.781 H 30.469 V 279.59 Z m 0,10.781 h -32.312 v 21.531 h 10.781 v -10.75 H 8.938 v 10.75 h 10.75 v -10.75 z"
         id="path1517"
         inkscape:connector-curvature="0"
         style="fill:#ffffff" />
      <rect
         x="8.9280996"
         y="279.60001"
         width="10.775"
         height="10.775"
         id="rect1519" />
    </g>
  </g>
</svg>
