<?xml version="1.0" encoding="UTF-8"?>
<svg width="63.932mm" height="90.991mm" version="1.1" viewBox="0 0 63.931606 90.990829" xmlns="http://www.w3.org/2000/svg" xmlns:cc="http://creativecommons.org/ns#" xmlns:dc="http://purl.org/dc/elements/1.1/" xmlns:rdf="http://www.w3.org/1999/02/22-rdf-syntax-ns#">
<metadata>
<rdf:RDF>
<cc:Work rdf:about="">
<dc:format>image/svg+xml</dc:format>
<dc:type rdf:resource="http://purl.org/dc/dcmitype/StillImage"/>
<dc:title/>
</cc:Work>
</rdf:RDF>
</metadata>
<g transform="translate(-596.23 -204.64)">
<g transform="matrix(.26458 0 0 .26458 393.85 144.9)">
<g transform="translate(0,40)">
<rect x="770.13" y="308.17" width="145.69" height="152.16" fill="none"/>
<rect x="768.7" y="309.41" width="148.54" height="149.68" rx="16" fill="#0e79b2" stroke-width="0"/>
<rect x="782.71" y="322.51" width="123.63" height="123.63" rx="5.3571" fill="#6b99e3" stroke-width="0"/>
<ellipse cx="843.92" cy="384.3" rx="41.577" ry="41.577" fill="#ebebeb" stroke-width="0"/>
<path d="m906.29 337.69c-2.5848 0-4.666 2.23-4.666 5v19.137c0 2.77 2.0812 5 4.666 5s4.666-2.23 4.666-5v-19.137c0-2.77-2.0812-5-4.666-5zm-66.533 9.3809 4.1641 6.7871 4.164-6.7871zm4.1641 10.787c-14.603-1.1e-4 -26.442 11.838-26.441 26.441-1e-4 14.603 11.838 26.442 26.441 26.441 14.603 1e-4 26.441-11.838 26.441-26.441 0-14.603-11.838-26.442-26.441-26.441zm62.369 43.832c-2.5848 0-4.666 2.23-4.666 5v19.137c0 2.77 2.0812 5 4.666 5s4.666-2.23 4.666-5v-19.137c0-2.77-2.0812-5-4.666-5zm-120.42 57.242 2 11.939h20.51l2-11.939zm92 0 2 11.939h20.51l2-11.939z" fill="#191923" stroke-width="0"/>
<path d="m843.94 362.27c-0.4815 4e-3 -0.8686 0.39746-0.8653 0.87891l-0.031 4.6875c-0.01 1.1666 1.7408 1.1783 1.7461 0.0117l0.031-4.6875c0.01-0.49214-0.3886-0.89522-0.8808-0.89063zm-10.6 2.8262c-0.146 5e-3 -0.2884 0.0467-0.4141 0.12109-0.4148 0.24413-0.5538 0.77799-0.3106 1.1934l2.3164 4.0742c0.5573 1.071 2.1514 0.16624 1.5176-0.86133l-2.3164-4.0762c-0.1584-0.28754-0.4648-0.46187-0.7929-0.45117zm21.199 0.0195c-0.3104-3e-3 -0.5986 0.16018-0.7559 0.42773l-2.3965 4.0274c-0.2557 0.41632-0.1169 0.9616 0.3067 1.2051 0.4147 0.23888 0.9446 0.0963 1.1836-0.31836l2.3964-4.0273c0.346-0.57471-0.064-1.3078-0.7343-1.3144zm-28.883 7.7129c-0.3285-0.0145-0.6373 0.1569-0.7988 0.44336-0.2376 0.4191-0.091 0.95145 0.3281 1.1894l4.045 2.3711c1.0057 0.59045 1.8899-0.91977 0.8828-1.5078l-4.0449-2.3691c-0.1246-0.0761-0.2663-0.11976-0.4122-0.12695zm36.553 0.043c-0.1299 9e-3 -0.256 0.047-0.3691 0.11133l-4.0879 2.291c-0.429 0.23236-0.5818 0.77278-0.3379 1.1953 0.2396 0.41401 0.7693 0.55562 1.1836 0.31641l4.0918-2.291c0.8092-0.45047 0.4436-1.6857-0.4805-1.623zm-1.7988 10.523c-0.4882-0.0135-0.8911 0.37884-0.8907 0.86719 9e-4 0.47827 0.3889 0.86548 0.8672 0.86524l4.6875 0.0625c1.1563 0.0144 1.1778-1.72 0.022-1.7344zm-37.619 8e-3c-0.4921-0.01-0.8952 0.38864-0.8906 0.88086 0 0.48145 0.3974 0.86857 0.8789 0.86523l4.6875 0.0293c1.1645 8e-3 1.1762-1.7379 0.012-1.7461zm35.365 8.2266c-0.2947 0.0144-0.5618 0.1778-0.7089 0.43359-0.2389 0.41476-0.096 0.94464 0.3183 1.1836l4.0293 2.3965c1.0097 0.65608 1.9442-0.9179 0.8848-1.4902l-4.0273-2.3945c-0.1486-0.092-0.3216-0.13694-0.4962-0.12891zm-28.447 0.0293c-0.1599-5e-3 -0.318 0.0344-0.457 0.11328l-4.0743 2.3164c-0.4321 0.23699-0.5825 0.78452-0.332 1.209 0.2441 0.41484 0.778 0.55377 1.1934 0.31055l4.0761-2.3164c0.7706-0.43554 0.4786-1.6091-0.4062-1.6328zm22.457 6.0098c-0.145 4e-3 -0.2867 0.0443-0.4121 0.11719-0.414 0.23962-0.5556 0.76934-0.3164 1.1836l2.2891 4.0898c0.565 1.0092 2.0787 0.16154 1.5136-0.84766l-2.291-4.0879c-0.1547-0.28689-0.4573-0.46272-0.7832-0.45508zm-16.455 0.01c-0.3108-9.3e-4 -0.5987 0.16347-0.7558 0.43164l-2.3711 4.0449c-0.2541 0.42124-0.11 0.96911 0.3184 1.2109 0.419 0.23761 0.9514 0.0908 1.1894-0.32813l2.3691-4.0449c0.3403-0.58077-0.077-1.3119-0.75-1.3144zm8.25 2.2109c-0.4782 8.4e-4 -0.8654 0.38892-0.8652 0.86719l-0.063 4.6875c-0.014 1.1563 1.72 1.1778 1.7344 0.0215l0.061-4.6856c0.013-0.48816-0.3789-0.89106-0.8672-0.89063z" color="#000000" color-rendering="auto" dominant-baseline="auto" fill="#ebebeb" image-rendering="auto" shape-rendering="auto" solid-color="#000000" style="font-feature-settings:normal;font-variant-alternates:normal;font-variant-caps:normal;font-variant-ligatures:normal;font-variant-numeric:normal;font-variant-position:normal;isolation:auto;mix-blend-mode:normal;shape-padding:0;text-decoration-color:#000000;text-decoration-line:none;text-decoration-style:solid;text-indent:0;text-orientation:mixed;text-transform:none;white-space:normal"/>
</g>
<g transform="matrix(.83507 -.30896 .32078 .80429 177.36 325.8)" fill="#d9534f">
<g transform="matrix(1.3842 0 0 1.3842 -401.8 -135.15)" aria-label="?">
<path d="m868.41 242.7q-2.0156 2.1094-3.0469 4.5-2.4375 5.625-2.4375 11.156 0 1.9219 0.79688 4.2188 0.1875 0.46875 0.1875 0.84375 0 0.89062-1.1719 0.89062-2.0156 0-3.9844-1.9688-1.9219-2.0156-3.1406-5.0625-1.2188-3.0469-1.2188-6.1406 0-6.6094 4.6406-10.922 4.6406-4.3125 11.766-4.3125 5.0156 0 9.375 1.9219 4.4062 1.9219 6.9844 5.1562 2.5781 3.2344 2.5781 7.0312 0 5.9531-4.5 12.094-1.9219 2.5312-3.6094 4.2188t-5.1562 4.4062v0.1875q1.8281 0 3.3281 0t3.2344 0q1.7344-0.0469 2.3906-0.0938 0.32813-0.0469 0.5625-0.0469 0.23438-0.0469 0.46875-0.0469 1.6406 0 1.6406 1.2656 0 0.79688-1.125 2.7188-1.125 1.9219-2.625 3.3281-5.1094 5.0625-17.391 5.0625-9 0-9-3.4219 0-0.60937 0.51563-1.4531 0.51562-0.89063 2.25-3.0938 2.7656-3.3281 5.4844-7.2656 6.8438-10.312 6.8438-18.047 0-3.0938-1.0781-4.7812-1.0781-1.6875-3.5625-2.3438zm-7.6875 58.266q-1.7344 0-3.0469-1.2188-1.2656-1.2656-1.2656-3 0-1.7812 1.125-4.5 1.125-2.7656 2.25-3.8438 1.6406-1.5938 4.3125-2.4844 2.6719-0.89063 5.6719-0.89063 4.3125 0 4.3125 3 0 1.0781-0.375 2.5781-1.2188 5.25-2.3906 6.4219-1.6875 1.5469-7.2188 3.2812-2.0625 0.65625-3.375 0.65625z" fill="#d9534f"/>
</g>
<g transform="matrix(.93356 .43407 -.43407 .93356 165.84 -358.06)" aria-label="?">
<path d="m868.41 242.7q-2.0156 2.1094-3.0469 4.5-2.4375 5.625-2.4375 11.156 0 1.9219 0.79688 4.2188 0.1875 0.46875 0.1875 0.84375 0 0.89062-1.1719 0.89062-2.0156 0-3.9844-1.9688-1.9219-2.0156-3.1406-5.0625-1.2188-3.0469-1.2188-6.1406 0-6.6094 4.6406-10.922 4.6406-4.3125 11.766-4.3125 5.0156 0 9.375 1.9219 4.4062 1.9219 6.9844 5.1562 2.5781 3.2344 2.5781 7.0312 0 5.9531-4.5 12.094-1.9219 2.5312-3.6094 4.2188t-5.1562 4.4062v0.1875q1.8281 0 3.3281 0t3.2344 0q1.7344-0.0469 2.3906-0.0938 0.32813-0.0469 0.5625-0.0469 0.23438-0.0469 0.46875-0.0469 1.6406 0 1.6406 1.2656 0 0.79688-1.125 2.7188-1.125 1.9219-2.625 3.3281-5.1094 5.0625-17.391 5.0625-9 0-9-3.4219 0-0.60937 0.51563-1.4531 0.51562-0.89063 2.25-3.0938 2.7656-3.3281 5.4844-7.2656 6.8438-10.312 6.8438-18.047 0-3.0938-1.0781-4.7812-1.0781-1.6875-3.5625-2.3438zm-7.6875 58.266q-1.7344 0-3.0469-1.2188-1.2656-1.2656-1.2656-3 0-1.7812 1.125-4.5 1.125-2.7656 2.25-3.8438 1.6406-1.5938 4.3125-2.4844 2.6719-0.89063 5.6719-0.89063 4.3125 0 4.3125 3 0 1.0781-0.375 2.5781-1.2188 5.25-2.3906 6.4219-1.6875 1.5469-7.2188 3.2812-2.0625 0.65625-3.375 0.65625z" fill="#d9534f"/>
</g>
<g transform="matrix(.69524 -.57091 .57091 .69524 -5.8221 577.84)" aria-label="?">
<path d="m868.41 242.7q-2.0156 2.1094-3.0469 4.5-2.4375 5.625-2.4375 11.156 0 1.9219 0.79688 4.2188 0.1875 0.46875 0.1875 0.84375 0 0.89062-1.1719 0.89062-2.0156 0-3.9844-1.9688-1.9219-2.0156-3.1406-5.0625-1.2188-3.0469-1.2188-6.1406 0-6.6094 4.6406-10.922 4.6406-4.3125 11.766-4.3125 5.0156 0 9.375 1.9219 4.4062 1.9219 6.9844 5.1562 2.5781 3.2344 2.5781 7.0312 0 5.9531-4.5 12.094-1.9219 2.5312-3.6094 4.2188t-5.1562 4.4062v0.1875q1.8281 0 3.3281 0t3.2344 0q1.7344-0.0469 2.3906-0.0938 0.32813-0.0469 0.5625-0.0469 0.23438-0.0469 0.46875-0.0469 1.6406 0 1.6406 1.2656 0 0.79688-1.125 2.7188-1.125 1.9219-2.625 3.3281-5.1094 5.0625-17.391 5.0625-9 0-9-3.4219 0-0.60937 0.51563-1.4531 0.51562-0.89063 2.25-3.0938 2.7656-3.3281 5.4844-7.2656 6.8438-10.312 6.8438-18.047 0-3.0938-1.0781-4.7812-1.0781-1.6875-3.5625-2.3438zm-7.6875 58.266q-1.7344 0-3.0469-1.2188-1.2656-1.2656-1.2656-3 0-1.7812 1.125-4.5 1.125-2.7656 2.25-3.8438 1.6406-1.5938 4.3125-2.4844 2.6719-0.89063 5.6719-0.89063 4.3125 0 4.3125 3 0 1.0781-0.375 2.5781-1.2188 5.25-2.3906 6.4219-1.6875 1.5469-7.2188 3.2812-2.0625 0.65625-3.375 0.65625z" fill="#d9534f"/>
</g>
</g>
<g transform="matrix(.18896 0 0 -.18896 914.38 470.87)" fill="#191923">
<path d="m0 0c0.649 5.902 1.497 11.304 1.7 16.73 0.071 1.898-0.911 4.538-2.338 5.659-4.526 3.556-9.737 6.25-14.197 9.876-2.947 2.396-5.447 5.576-7.476 8.825-9.648 15.451-8.644 31.532-2.623 47.962 1.648 4.495 2.326 9.346 3.582 14.591-2.373 0.132-3.676 0.227-4.981 0.274-5.804 0.211-9.766 2.702-10.694 8.788-2.157 14.152-4.942 28.247-6.279 42.478-6.373 67.83-4.746 135.85-3.241 203.8 0.604 27.223 3.094 54.57 7.147 81.496 3.009 19.991 8.944 39.72 15.347 58.977 7.82 23.516 17.304 46.491 26.466 69.542 3.239 8.151 7.314 16.026 11.612 23.687 4.8 8.553 13.579 12.554 22.209 15.185 18.305 5.581 36.958 10.041 55.536 14.69 3.78 0.946 5.709 2.176 4.427 6.294-2.786 8.953-5.438 17.949-8.278 26.884-1.393 4.379-1.603 7.622 3.705 9.908 12.869 5.542 18.742 17.505 21.54 29.669 1.624 7.061-2.172 15.713-4.768 23.221-0.976 2.823-5.41 4.496-8.343 6.586-9.648 6.877-19.504 13.477-28.931 20.642-5.139 3.906-6.806 9.951-4.607 15.89 2.304 6.219 7.98 9.072 14.422 9.299 10.183 0.358 20.407 0.611 30.57 0.081 5.327-0.279 6.459 1.891 7.425 6.389 3.365 15.661 6.397 31.468 11.102 46.743 3.809 12.365 11.067 23.149 26.107 23.029 5.279-0.042 11.418-1.931 15.635-5.047 12.391-9.16 15.553-9.828 29.252-2.307 6.908 3.792 13.992 7.154 22.227 6.366 9.526-0.911 15.78-6.279 19.545-14.746 7.764-17.463 10.019-36.191 11.973-54.908 0.536-5.143 1.996-6.385 7.167-6 5.724 0.427 11.809 0.04 17.315-1.499 10.612-2.968 11.583-13.695 8.139-21.542-5.952-13.563-17.092-22.058-29.508-28.977-3.316-1.848-4.579-3.857-4.523-7.305 0.025-1.566 0.205-3.307-0.376-4.676-3.867-9.12 0.109-15.498 6.692-21.455 7.204-6.519 13.813-13.697 21.031-20.198 6.225-5.607 7.254-9.829 3.214-17.462-4.28-8.088-8.496-16.208-12.806-24.439 11.11-2.618 22.18-4.416 32.705-7.875 21.579-7.093 42.804-15.153 57.695-33.848 10.121-12.708 15.391-27.688 18.909-43.111 5.509-24.145 13.685-47.254 23.45-69.947 12.194-28.336 23.879-56.892 35.599-85.429 0.976-2.376 0.605-5.329 0.75-8.019 0.364-6.753 1.278-13.545 0.88-20.257-1.339-22.593-9.05-42.975-22.24-61.379-14.987-20.914-29.884-41.893-44.605-62.995-7.228-10.362-16.136-18.592-26.294-26.19-5.926-4.434-9.923-12.428-12.933-19.599-10.267-24.463-12.459-50.561-12.909-76.699-0.507-29.441-0.065-58.9 0.173-88.35 0.045-5.47 1.049-10.936 1.66-16.398 1.589-14.197-7.417-23.603-16.676-27.616-6.233-2.701-7.858-6.309-8.419-13.032-2.64-31.669-5.674-63.328-9.619-94.859-5.355-42.802-12.125-85.428-17.373-128.24-2.552-20.826-2.673-41.938-4.547-62.861-1.611-17.976-3.997-35.888-6.385-53.782-0.594-4.453 0.02-7.715 3.416-10.865 10.797-10.017 19.916-21.349 26.389-34.719 5.784-11.946 15.937-19.521 26.955-26.155 3.839-2.311 7.823-4.463 11.353-7.189 7.666-5.922 9.096-19.785 2.135-26.074-3.22-2.909-8.195-4.982-12.549-5.348-24.726-2.079-49.058-0.039-71.952 10.421-8.484 3.876-16.16 9.53-24.66 13.362-11.903 5.367-24.157 9.995-36.406 14.547-8.925 3.317-13.438 8.358-13.222 17.748 0.262 11.366 1.645 22.707 1.874 34.073 0.283 14.094 0.26 28.217-0.31 42.299-0.976 24.122-3.646 48.227-3.53 72.33 0.278 57.751 2.332 115.49 2.543 173.24l-2.381 69.89-35.367-14.484-4.582-112.96c-0.832-31.926 1.811-63.958 3.314-95.925 1.349-28.689 2.519-57.424-1.47-85.916-4.446-31.753-7.148-63.588-7.952-95.605-0.255-10.175 0.746-20.439-0.234-30.526-1.526-15.719-10.224-24.816-25.848-26.473-13.388-1.421-27.008-2.394-40.145 2.836-10.353 4.122-16.965 11.488-20.539 21.799-6.138 17.707-3.934 35.291 1.591 52.569 3.386 10.589 8.089 20.754 11.613 31.306 1.101 3.295 0.9 7.347 0.237 10.853-2.471 13.08-6.005 25.983-7.978 39.126-2.793 18.616-5.035 37.344-6.666 56.097-4.051 46.557-8.257 93.116-11.183 139.75-2.275 36.246-2.814 72.604-3.857 108.92-0.146 5.075-1.335 8.082-6.247 10.495-7.484 3.675-13.85 8.996-14.663 18.331-0.092 1.049 3.412 9.388-0.618 9.735" fill="#191923"/>
</g>
</g>
</g>
</svg>
