<?xml version="1.0" encoding="UTF-8"?>
<svg width="72.426mm" height="61.531mm" version="1.1" viewBox="0 0 72.426094 61.530865" xmlns="http://www.w3.org/2000/svg" xmlns:cc="http://creativecommons.org/ns#" xmlns:dc="http://purl.org/dc/elements/1.1/" xmlns:rdf="http://www.w3.org/1999/02/22-rdf-syntax-ns#">
<metadata>
<rdf:RDF>
<cc:Work rdf:about="">
<dc:format>image/svg+xml</dc:format>
<dc:type rdf:resource="http://purl.org/dc/dcmitype/StillImage"/>
<dc:title/>
</cc:Work>
</rdf:RDF>
</metadata>
<g transform="translate(-80.204 239.5)">
<g transform="matrix(.26458 0 0 .26458 -24.883 -320.23)">
<g transform="translate(84.594 106.82)">
<rect x="317.79" y="202.1" width="145.69" height="152.16" fill="none"/>
<rect x="316.36" y="203.34" width="148.54" height="149.68" rx="16" fill="#0e79b2" stroke-width="0"/>
<path d="m335.73 216.44c-2.9678 0-5.3574 2.3876-5.3574 5.3555v112.91c0 2.9678 2.3896 5.3574 5.3574 5.3574h112.91c2.9679 0 5.3574-2.3896 5.3574-5.3574v-112.91c0-2.9679-2.3896-5.3555-5.3574-5.3555zm-2.1953 136.42 2 11.939h20.51l2-11.939zm92 0 2 11.939h20.51l2-11.939z" fill="#191923" stroke-width="0"/>
<g transform="translate(-278)" stroke-width="0">
<path d="m730.94 211.8c-0.94713 0.0654-1.6074 0.8133-1.6074 1.9863v117.62c0 1.564 1.1758 3.2716 2.6367 3.8301l60.182 23.006 0.6875 3.0312h7.8047l-0.01-0.0508c0.90859-0.0975 1.5391-0.83146 1.5391-1.9746v-117.61c0-1.564-1.1758-3.2736-2.6367-3.832l-67.566-25.826c-0.36524-0.1396-0.71359-0.19368-1.0293-0.17187z" fill="#0e79b2"/>
<rect transform="matrix(.93577 .3526 0 1 0 0)" x="779.35" y="-60.484" width="69.33" height="123.26" rx="2.5099" fill="#6b99e3"/>
</g>
<path d="m451.96 231.62c-2.5848 0-4.666 2.23-4.666 5v19.137c0 2.77 2.0812 5 4.666 5 2.5848 0 4.666-2.23 4.666-5v-19.137c0-2.77-2.0812-5-4.666-5zm0 64c-2.5848 0-4.666 2.23-4.666 5v19.137c0 2.77 2.0812 5 4.666 5 2.5848 0 4.666-2.23 4.666-5v-19.137c0-2.77-2.0812-5-4.666-5z" fill="#0e79b2" stroke-opacity="0"/>
</g>
<g transform="matrix(.44499 0 0 .44499 233.94 375.51)">
<rect x="464.5" y="61.5" width="509" height="74.5" fill="#ebebeb" stroke-width="0"/>
<circle cx="512.5" cy="98.75" r="25.5" fill="#fff" stroke-width="0"/>
<flowRoot transform="translate(8 8.4076)" fill="#000000" font-family="Calibri" font-size="26.667px" letter-spacing="0px" word-spacing="0px" style="line-height:1.25" xml:space="preserve"><flowRegion font-family="Calibri" font-size="26.667px"><rect x="557.5" y="76" width="345" height="33.5"/></flowRegion><flowPara>Bank information</flowPara></flowRoot>
<text x="504.5" y="109.25781" fill="#000000" font-family="sans-serif" font-size="16px" letter-spacing="0px" word-spacing="0px" style="line-height:1.25" xml:space="preserve"><tspan x="504.5" y="109.25781" font-family="Stencil" font-size="32px">$</tspan></text>
<rect x="464.5" y="141.5" width="509" height="74.5" fill="#ebebeb" stroke-width="0"/>
<circle cx="512.5" cy="178.75" r="25.5" fill="#fff" stroke-width="0"/>
<flowRoot transform="translate(8 88.408)" fill="#000000" font-family="Calibri" font-size="26.667px" letter-spacing="0px" word-spacing="0px" style="line-height:1.25" xml:space="preserve"><flowRegion font-family="Calibri" font-size="26.667px"><rect x="557.5" y="76" width="345" height="33.5"/></flowRegion><flowPara>School</flowPara></flowRoot>
<text x="924.5" y="186.75" fill="#000000" font-family="Webdings" font-size="16px" letter-spacing="0px" word-spacing="0px" style="line-height:1.25" xml:space="preserve"><tspan x="924.5" y="186.75" font-family="Webdings" font-size="32px">6</tspan></text>
<rect x="464.5" y="221.5" width="509" height="42.5" fill="#ebebeb" stroke-width="0"/>
<text x="924.5" y="106.75" fill="#000000" font-family="Webdings" font-size="16px" letter-spacing="0px" word-spacing="0px" style="line-height:1.25" xml:space="preserve"><tspan x="924.5" y="106.75" font-family="Webdings" font-size="32px">6</tspan></text>
<text x="497" y="185.6875" fill="#000000" font-family="Webdings" font-size="16px" letter-spacing="0px" word-spacing="0px" style="line-height:1.25" xml:space="preserve"><tspan x="497" y="185.6875" font-family="Webdings" font-size="32px">G</tspan></text>
<flowRoot transform="translate(-72 153.44)" fill="#000000" font-family="Calibri" font-size="21.333px" letter-spacing="0px" word-spacing="0px" style="line-height:1.25" xml:space="preserve"><flowRegion font-family="Calibri" font-size="21.333px"><rect x="557.5" y="76" width="345" height="33.5"/></flowRegion><flowPara>Membership card number</flowPara></flowRoot>
<rect x="464.5" y="267.5" width="509" height="42.5" fill="#ebebeb" stroke-width="0"/>
<flowRoot transform="translate(-72 199.44)" fill="#000000" font-family="Calibri" font-size="21.333px" letter-spacing="0px" word-spacing="0px" style="line-height:1.25" xml:space="preserve"><flowRegion font-family="Calibri" font-size="21.333px"><rect x="557.5" y="76" width="345" height="33.5"/></flowRegion><flowPara>Bicycle lock combination</flowPara></flowRoot>
<rect x="464.5" y="313.5" width="509" height="42.5" fill="#ebebeb" stroke-width="0"/>
<flowRoot transform="translate(-72 245.44)" fill="#000000" font-family="Calibri" font-size="21.333px" letter-spacing="0px" word-spacing="0px" style="line-height:1.25" xml:space="preserve"><flowRegion font-family="Calibri" font-size="21.333px"><rect x="557.5" y="76" width="345" height="33.5"/></flowRegion><flowPara>Insurance policy number</flowPara></flowRoot>
</g>
</g>
</g>
</svg>
